<svg width="790" height="1033" viewBox="0 0 790 1033" fill="none" xmlns="http://www.w3.org/2000/svg">
<path d="M174.985 321.094C173.472 321.094 171.18 318.434 170.812 316.532C168.457 304.394 126.318 75.0171 125.243 71.2047C123.63 65.5463 125.992 62.0098 132.075 61.3025C153.293 58.8341 458.657 25.9375 476.134 24.0844C479.925 23.6883 482.266 24.4451 483.348 28.6394C486.566 41.1303 537.978 257.274 542.207 275.869C542.489 276.98 542.517 278.14 542.289 279.263C542.061 280.386 541.582 281.443 540.889 282.355C540.196 283.267 539.305 284.011 538.285 284.532C537.264 285.052 536.139 285.336 534.993 285.361C519.801 286.528 180.304 321.469 174.985 321.094Z" fill="#F8F4E3"/>
<path d="M-79.4477 678.464C-81.131 666.694 -85.3676 657.768 -74.8858 654.543C-66.8441 652.06 -66.9148 652.258 -66.9148 638.593C-67.6765 623.635 -62.9507 608.914 -53.6252 597.195C-47.5095 588.304 -39.6986 580.709 -30.6407 574.844C-21.5828 568.979 -11.4561 564.96 -0.841598 563.018C16.4724 559.368 20.8433 557.077 67.1342 562.636C83.4014 564.588 128.426 573.698 149.178 574.031C174.71 574.441 197.194 565.458 189.414 540.986C178.763 507.297 147.48 493.13 113.842 471.868C96.9598 461.195 83.0195 451.625 95.2341 433.511C101.017 425.521 108.724 419.12 117.64 414.902C142.437 401.902 141.376 403.508 153.711 401.605C153.711 400.848 153.711 399.328 154.468 398.953C159.419 395.155 157.828 390.607 156.745 386.037C154.931 375.82 155.32 365.333 157.884 355.277C158.645 352.506 160.272 350.051 162.526 348.27C164.781 346.488 167.545 345.474 170.417 345.375C186.776 344.102 543.757 306.671 558.921 304.747C564.55 303.808 570.32 304.175 575.785 305.821C581.25 307.467 586.263 310.347 590.437 314.239C624.541 344.264 689.066 394.412 722.59 422.096C725.839 424.182 728.285 427.309 729.527 430.965C730.769 434.622 730.735 438.591 729.43 442.225C727.824 446.915 726.403 463.041 706.26 465.389C645.116 472.519 394.551 497.557 310.188 507.544C265.807 512.793 219.339 482.301 190.567 448.676C181.169 438.402 173.01 427.059 166.258 414.881C165.501 412.604 160.529 412.943 159.426 411.84C156.767 407.66 153.351 409.18 149.934 410.319C131.652 414.727 115.113 424.518 102.455 438.427C88.4089 455.537 117.386 463.246 155.621 488.935C176.556 502.997 199.394 528.198 198.913 552.352C198.598 557.735 196.847 562.936 193.842 567.414C190.837 571.892 186.688 575.483 181.825 577.815C141.674 595.568 71.3 566.293 22.3286 569.462C-8.08405 571.421 -33.3266 583.226 -49.0633 610.485C-55.6111 621.339 -58.7844 633.895 -58.18 646.557C-58.18 649.599 -57.4233 651.876 -53.6252 652.633C-46.404 653.397 -45.1946 659.451 -43.7234 665.166C-41.7148 673.116 -41.8067 672.947 -33.8216 672.006C78.295 658.907 33.3691 662.217 69.8501 658.709C75.1332 658.619 80.3326 660.035 84.8412 662.79C89.3498 665.546 92.9814 669.527 95.3119 674.269C112.088 710.914 173.062 831.707 174.682 851.618C175.431 855.988 174.467 860.478 171.99 864.156C169.514 867.834 165.716 870.416 161.385 871.366C147.081 877.429 132.193 882.011 116.954 885.038C116.12 885.236 -31.8059 916.237 -54.6932 918.458C-61.5396 919.122 -85.4524 920.36 -95.3259 915.041C-118.92 907.664 -136.609 865.686 -146.589 842.897C-190.298 743.075 -189.591 740.338 -191.402 720.237C-191.933 715.587 -190.708 710.907 -187.969 707.112C-185.229 703.318 -181.172 700.684 -176.591 699.725C-153.464 693.883 -130.293 688.96 -107.095 683.775C-92.2634 680.451 -80.8268 679.85 -79.4477 678.464ZM-170.969 749.484C-171.663 749.606 -172.32 749.885 -172.89 750.299C-173.46 750.714 -173.927 751.253 -174.257 751.876C-174.586 752.499 -174.769 753.189 -174.791 753.894C-174.813 754.598 -174.674 755.299 -174.385 755.941C-162.552 782.663 -110.964 890.378 -108.686 893.412C-105.857 896.241 157.149 844.205 157.898 844.042C158.695 843.872 159.444 843.525 160.089 843.026C160.733 842.528 161.257 841.89 161.622 841.161C161.987 840.432 162.183 839.631 162.196 838.816C162.209 838.001 162.038 837.193 161.696 836.453C149.163 810.425 103.212 712.265 99.4565 704.669C98.9973 704.004 98.3657 703.476 97.6293 703.142C96.893 702.808 96.0796 702.68 95.2765 702.773C65.6418 707.71 -131.475 742.269 -170.969 749.484V749.484ZM176.507 414.146C184.375 428.931 194.353 442.493 206.127 454.405C242.651 489.063 284.026 501.37 297.266 500.38C309.41 499.453 675.14 459.887 701.705 456.711C706.057 456.501 710.206 454.802 713.456 451.899C716.706 448.995 718.859 445.063 719.556 440.761C720.165 438.467 720.132 436.05 719.463 433.773C718.793 431.496 717.512 429.446 715.758 427.846C671.511 391.243 627.165 353.919 583.223 316.955C581.041 314.835 578.396 313.25 575.497 312.327C572.597 311.404 569.523 311.167 566.517 311.637C540.001 315.548 211.085 350.58 173.472 354.556C160.508 355.921 163.882 359.401 167.015 391.01C167.354 394.433 169.292 395.565 172.673 395.565C176.321 395.511 179.899 396.572 182.929 398.606C185.76 401.616 187.841 405.251 189.004 409.216C190.525 412.257 189.004 414.167 185.588 414.167C182.572 414.539 179.521 414.532 176.507 414.146V414.146Z" fill="#F8F4E3"/>
<path d="M672.483 150.963C669.067 139.569 666.026 128.556 662.228 117.925C660.915 101.139 662.066 84.2517 665.644 67.799C671.302 64.9698 678.785 81.1599 688.814 91.7199C696.764 100.094 697.924 110.711 700.965 120.585C702.486 125.536 703.999 130.077 705.52 135.014C705.726 135.038 705.935 135.016 706.132 134.95C706.328 134.884 706.508 134.775 706.658 134.632C705.902 129.681 702.86 80.7073 702.86 62.4872C702.86 51.1704 711.411 39.4788 722.233 44.635C732.608 49.5861 733.478 59.9622 735.14 71.5972C743.118 70.8404 744.116 71.5973 745.749 79.5756C747.38 87.8516 747.38 96.3663 745.749 104.642C744.964 107.769 743.946 109.056 741.951 108.059C741.187 98.1564 738.91 78.0549 738.528 78.0549C737.843 80.677 737.338 83.3425 737.015 86.0332C738.156 103.881 739.674 121.728 741.569 139.576C741.569 140.637 742.602 146.09 745.749 144.527C750.617 116.076 757.09 87.9229 765.136 60.2026C767.045 52.7689 772.35 45.8091 779.946 48.4261C781.975 49.7528 783.564 51.6525 784.511 53.8841C785.458 56.1157 785.72 58.5784 785.264 60.9595C785.264 61.7163 784.883 62.0982 784.883 62.8621C786.785 63.5751 788.405 64.8854 789.5 66.5966C790.596 68.3078 791.107 70.3278 790.958 72.3541C791.149 81.0963 791.149 89.4353 790.958 98.1776C790.887 99.1079 790.479 99.9805 789.811 100.632C789.143 101.283 788.26 101.668 787.328 101.715C786.396 101.762 785.479 101.467 784.749 100.886C784.019 100.305 783.526 99.4781 783.362 98.5595C783.192 95.7482 782.812 92.9536 782.223 90.1992C762.271 189.971 776.494 141.556 800.45 91.338C802.563 87.6305 805.113 84.1898 808.046 81.0892C810.964 76.7415 814.279 72.6736 817.947 68.9378C818.503 67.9899 819.274 67.186 820.198 66.5913C821.122 65.9966 822.173 65.6277 823.266 65.5145C826.682 65.5145 827.114 67.792 827.439 71.2153C828.351 80.6931 829.724 89.8244 830.862 99.3163C831.492 102.485 830.417 103.85 809.595 149.825C808.053 153.234 809.595 155.087 812.254 156.664C815.331 158.503 818.711 160.462 821.746 161.976C824.102 163.191 825.982 165.162 827.084 167.573C828.186 169.985 828.445 172.697 827.821 175.273C824.836 194.328 799.806 332.442 797.062 349.58C790.364 391.36 729.319 383.474 688.071 374.647C667.355 370.219 668.812 357.672 663.77 335.915C661.039 324.153 629.891 191.52 624.657 172.614C619.784 155.158 654.61 150.001 672.483 150.963ZM816.059 179.446C755.297 192.362 695.293 193.5 636.052 172.614C652.503 254.852 660.24 277.245 680.108 352.975C682.569 362.375 688.524 361.173 691.876 362.878C737.63 367.829 755.425 373.487 775.801 364.016C778.657 362.988 781.186 361.213 783.122 358.875C785.059 356.538 786.334 353.724 786.813 350.726C814.701 201.479 806.157 236.702 816.017 179.446H816.059ZM670.609 116.023C673.608 134.645 678.69 152.87 685.759 170.358C686.176 171.274 686.834 172.061 687.661 172.635C694.493 173.774 701.326 174.531 708.547 175.295C707.401 170.704 689.783 114.467 689.557 113.759C686.141 105.01 669.053 114.127 670.566 116.023H670.609ZM813.018 105.01C811.122 105.392 809.213 106.955 807.324 106.531C805.797 106.191 804.665 103.871 803.144 101.976C792.889 125.897 780.363 148.658 771.246 173.753C778.079 172.989 783.779 172.232 789.473 171.475C792.238 171.475 792.578 169.806 816.434 114.127C817.693 111.531 815.09 108.54 812.975 105.01H813.018ZM757.957 99.6983C752.638 125.868 748.055 150.207 742.765 175.648C748.083 175.273 751.499 174.891 755.297 174.891C761.592 174.891 758.013 175.054 774.281 103.871C768.545 102.358 763.226 101.212 757.914 99.6983H757.957ZM735.169 175.648C732.771 142.108 731.123 126.569 730.218 111.086C729.737 102.74 728.697 101.184 719.962 101.976C717.652 102.482 715.371 103.115 713.13 103.871C715.407 127.799 717.685 151.727 719.587 175.648H735.169ZM728.336 92.8941C726.816 81.1246 725.366 68.5771 723.018 56.4398C721.547 48.8363 713.901 52.6416 712.762 54.5372C711.252 56.6368 710.453 59.1652 710.485 61.7516C711.093 87.2569 712.762 89.6617 712.762 96.3103C718.038 95.1362 722.593 93.9691 728.294 92.8587L728.336 92.8941ZM681.621 99.3517C674.407 88.339 674.407 88.339 669.47 89.8597C667.193 106.948 665.672 104.289 670.609 104.289C674.622 103.571 678.393 101.862 681.579 99.3163L681.621 99.3517ZM810.74 95.5535C816.059 92.5192 816.059 92.5192 821.349 100.109H822.488C822.116 95.1716 821.736 90.2346 821.349 85.2976C819.363 84.5484 817.334 83.9155 815.274 83.4021C808.039 91.338 808.039 91.338 810.698 95.5181L810.74 95.5535Z" fill="#F8F4E3"/>
<path d="M-281.086 1044.93C-284.739 1045.45 -288.446 1045.45 -292.099 1044.93C-292.785 1044.78 -293.422 1044.45 -293.952 1043.99C-294.482 1043.52 -294.888 1042.93 -295.133 1042.27C-295.515 1041.52 -293.994 1040 -293.237 1038.86C-291.912 1037.51 -290.306 1036.47 -288.534 1035.81C-286.761 1035.16 -284.865 1034.9 -282.982 1035.06C-216.385 1022.57 865.23 824.991 985.77 801.501C996.931 799.323 1003.72 810.145 994.887 812.111C987.043 813.9 -280.379 1044.81 -281.086 1044.93Z" fill="#F8F4E3"/>
<path d="M1010.45 843.66C1011.77 843.149 1013.23 843.138 1014.56 843.627C1015.89 844.117 1017 845.074 1017.67 846.32C1016.91 850.493 1013.49 851.271 1010.08 852.395C579.351 955.583 -231.889 1104.56 -270.831 1104.56C-270.831 1088.32 -14.0706 1067.92 1010.45 843.66Z" fill="#F8F4E3"/>
<path d="M-93.1121 444.144C-103.721 453.261 -133.709 448.642 -144.375 441.866C-151.689 437.217 -157.67 430.747 -161.73 423.09C-165.791 415.434 -167.792 406.853 -167.538 398.19C-168.635 361.481 -137.472 349.302 -117.796 365.909C-116.275 367.048 -114.755 368.569 -113.616 365.909C-110.594 360.099 -106.16 355.142 -100.723 351.492C-95.2851 347.843 -89.0176 345.618 -82.496 345.023C-44.2327 338.416 -24.8252 334.448 32.5699 345.404C49.6858 348.672 58.7389 363.25 57.2536 381.859C54.8408 408.71 44.2226 434.167 26.841 454.774C20.6517 462.537 11.6802 467.581 1.83188 468.835C-15.6309 471.524 -33.3482 472.16 -50.9588 470.731C-72.5306 468.934 -85.9051 450.318 -93.1121 444.144ZM-108.297 376.547C-109.499 390.204 -107.145 403.94 -101.465 416.417C-93.9505 431.61 -83.189 444.965 -69.9419 455.538C-65.1403 459.914 -58.9556 462.467 -52.4653 462.753C-31.7716 464.357 -10.9565 463.208 9.43505 459.336C11.5003 458.731 13.347 457.542 14.7537 455.913C35.1231 434.899 51.6096 402.823 50.4497 372.749C49.7919 355.717 31.997 350.547 15.1356 348.064C-22.4629 342.519 -104.634 338.791 -108.297 376.547V376.547ZM-45.6401 349.578C16.3097 343.212 56.0159 362.479 39.8052 369.707C10.9203 382.587 -37.2873 390.014 -92.3483 375.783C-98.056 374.312 -107.569 366.588 -95.0076 359.451C-86.294 354.486 -56.2775 350.667 -45.6401 349.578V349.578ZM-117.032 379.581C-116.565 377.241 -116.97 374.811 -118.171 372.749C-120.6 369.767 -123.779 367.486 -127.381 366.14C-130.984 364.794 -134.879 364.431 -138.668 365.088C-142.457 365.746 -146.003 367.4 -148.941 369.881C-151.879 372.362 -154.104 375.581 -155.387 379.206C-157.816 384.858 -159.029 390.957 -158.947 397.108C-158.865 403.258 -157.49 409.323 -154.911 414.908C-152.333 420.492 -148.608 425.472 -143.979 429.523C-139.35 433.574 -133.921 436.606 -128.044 438.421C-117.999 442.416 -106.91 442.948 -96.5282 439.935C-98.4237 437.276 -100.326 434.984 -101.847 432.721C-123.992 440.6 -166.789 399.379 -139.056 379.935C-135.944 377.442 -132.092 376.054 -128.105 375.99C-124.118 375.926 -120.223 377.189 -117.032 379.581V379.581ZM-103.742 430.089C-111.536 417.657 -115.863 403.366 -116.275 388.698C-116.886 387.179 -117.83 385.815 -119.038 384.709C-120.245 383.603 -121.686 382.782 -123.253 382.306C-124.821 381.831 -126.475 381.714 -128.094 381.963C-129.712 382.213 -131.254 382.822 -132.606 383.747C-153.605 395.403 -127.542 430.089 -103.742 430.089V430.089ZM-49.8201 361.736C-60.4292 356.417 -79.4406 358.313 -85.516 367.812C-73.3651 365.57 -62.3671 363.632 -49.8201 361.736Z" fill="#F8F4E3"/>
<path d="M151.071 339.331C152.591 355.281 144.288 341.601 143.856 338.949C141.487 324.471 96.6531 90.5947 94.8637 78.0472C93.1406 70.0377 93.9303 61.6915 97.1251 54.1472C100.32 46.603 105.764 40.2281 112.715 35.8921C116.742 33.8277 121.12 32.5392 125.623 32.0939C135.475 30.4459 453.74 0.725183 467.405 0.194707C510.025 -1.46037 506.071 4.19805 568.035 293.378C568.035 301.356 562.044 298.675 561.203 295.273C560.163 291.072 558.444 286.948 557.405 282.747C502.337 60.0889 503.058 31.613 498.164 22.602C496.245 18.1407 492.982 14.3891 488.83 11.8699C484.678 9.35073 479.844 8.18946 475.001 8.54792C463.606 9.32595 124.456 40.3764 118.791 43.8705C105.536 51.9832 105.353 63.5759 103.599 74.249C103.98 74.631 147.272 317.306 151.071 339.331Z" fill="#F8F4E3"/>
<path d="M-303.489 304.745C-311.658 306.379 -315.556 295.416 -307.288 293.35C-296.678 292.077 97.3704 257.561 110.059 256.514C115.37 256.075 117.273 256.889 117.655 260.687C118.037 264.485 116.891 266.388 112.704 266.388C98.4808 266.416 -301.247 304.745 -303.489 304.745Z" fill="#F8F4E3"/>
<path d="M879.816 504.148C858.194 498.256 870.317 504.098 814.499 483.261C799.782 477.068 785.98 468.891 773.478 458.959C770.838 457.141 767.872 455.851 764.743 455.16C762.436 454.842 760.26 453.897 758.453 452.429C756.646 450.96 755.276 449.024 754.493 446.831C753.709 444.637 753.543 442.271 754.011 439.99C754.479 437.709 755.563 435.6 757.147 433.892C765.953 423.421 777.344 415.436 790.19 410.728C812.292 401.413 834.239 404.659 855.882 412.248C888.197 423.565 928.172 435.335 937.925 466.937C939.442 472.743 939.083 478.88 936.901 484.47C934.718 490.06 930.824 494.816 925.774 498.058C898.855 512.89 891.641 507.373 879.816 504.148ZM783.358 460.479C807.175 475.358 833.193 486.379 860.451 493.135C856.016 488.708 865.444 494.309 786.017 459.715C782.92 457.657 781.498 459.546 783.358 460.479V460.479ZM807.66 411.11C792.404 414.646 770.882 424.152 762.09 436.933C758.2 442.592 759.799 446.482 766.652 448.328C802.038 457.494 835.927 471.688 867.283 490.476C884.71 499.268 898.481 506.701 921.212 487.823C931.821 479.025 932.232 471.485 925.003 459.715C919.197 449.813 910.433 441.979 899.945 437.315C882.107 429.69 863.874 422.879 845.258 416.422C833.166 412.323 820.414 410.522 807.66 411.11V411.11Z" fill="#F8F4E3"/>
<path d="M746.525 597.964C747.282 583.528 758.252 577.905 770.827 585.049C771.535 585.466 868.565 638.952 944.377 682.656C951.097 690.027 957.074 698.041 962.222 706.584C963.969 709.229 963.113 712.243 958.806 712.243C925.14 708.501 955.008 720.362 756.399 608.977C752.983 605.935 748.046 602.901 746.525 597.964ZM939.441 686.447L796.261 605.179C795.113 604.206 793.767 603.496 792.315 603.099C790.864 602.702 789.344 602.628 787.861 602.881C786.378 603.135 784.968 603.71 783.731 604.566C782.494 605.422 781.46 606.539 780.701 607.838C777.589 611.573 777.681 613.496 781.839 615.809C847.347 652.101 929.001 699.737 930.706 699.737C933.365 695.564 936.024 691.002 939.441 686.447V686.447ZM951.591 699.356L945.898 690.245C938.677 693.28 935.643 697.078 935.996 703.154C941.336 702.397 947.412 706.195 951.591 699.356ZM756.385 601.38C759.419 596.818 762.078 592.645 765.12 588.083C764.205 587.577 763.197 587.264 762.157 587.163C761.117 587.062 760.068 587.175 759.073 587.496C758.079 587.817 757.161 588.338 756.376 589.028C755.591 589.718 754.956 590.561 754.51 591.506C751.844 596.061 752.983 599.86 756.399 601.38H756.385ZM770.813 610.49C774.611 605.539 778.027 601.755 781.422 597.582C778.742 597.404 776.086 598.184 773.928 599.785C771.771 601.385 770.253 603.7 769.646 606.317C769.688 607.477 770.799 609.352 770.799 610.49H770.813ZM763.217 606.692C766.64 601.034 769.292 596.79 771.577 592.263C765.876 593.402 762.078 596.443 761.675 601.38C761.887 603.227 762.413 605.023 763.231 606.692H763.217Z" fill="#F8F4E3"/>
<path d="M43.2135 449.84C66.2847 453.858 59.7141 501.834 -20.9643 506.806C-52.2751 508.737 -120.944 496.451 -109.069 471.872C-108.075 468.962 -106.25 466.407 -103.821 464.522C-101.391 462.637 -98.4631 461.504 -95.3974 461.263C-95.9754 462.412 -96.9078 463.344 -98.0568 463.922C-99.9876 464.941 -101.592 466.484 -102.685 468.374C-103.778 470.264 -104.315 472.424 -104.235 474.606C-104.156 476.787 -103.462 478.902 -102.234 480.707C-101.006 482.512 -99.293 483.934 -97.2929 484.809C-63.1034 505.589 7.16393 507.839 42.4567 479.151C44.3886 477.723 46.0079 475.915 47.2149 473.839C48.422 471.762 49.1913 469.46 49.4756 467.075C49.7598 464.69 49.5529 462.271 48.8676 459.969C48.1824 457.667 47.0332 455.529 45.4909 453.688C44.3522 452.881 43.9703 451.361 43.2135 449.84Z" fill="#F8F4E3"/>
<path d="M586.638 210.198C616.344 206.81 621.252 206.301 625.375 208.677C626.155 209.036 626.809 209.62 627.255 210.354C627.7 211.088 627.916 211.938 627.875 212.795C627.834 213.652 627.538 214.478 627.024 215.166C626.511 215.854 625.804 216.372 624.993 216.655C619.7 218.582 614.23 219.982 608.663 220.836C595.387 222.477 581.701 223.495 568.03 224.252C562.336 225.009 552.053 214.145 586.638 210.198Z" fill="#F8F4E3"/>
<path d="M701.329 557.688C698.677 554.271 695.671 550.091 689.942 552.369C688.804 552.751 677.296 553.578 674.382 548.571C668.915 539.234 648.008 533.717 639.825 533.01C562.195 524.692 527.136 540.521 488.688 562.25C481.283 565.425 486.658 563.813 462.859 555.417C416.971 538.209 339.398 542.063 265.389 589.219C255.828 595.112 247.666 603.016 241.469 612.383C236.674 619.562 233.045 618.317 222.479 622.993C221.342 623.252 220.287 623.788 219.408 624.553C218.528 625.318 217.852 626.289 217.438 627.379C217.024 628.469 216.886 629.644 217.036 630.8C217.187 631.956 217.62 633.057 218.299 634.005C224.374 644.261 334.503 828.831 344.377 845.92C347.418 851.238 349.695 852.377 355.389 851.238C376.282 846.676 552.258 812.507 591.221 804.146C597.401 802.472 603.815 801.829 610.204 802.244C623.42 803.833 636.742 800.288 647.421 792.342C650.418 790.144 653.971 788.828 657.677 788.543C675.521 786.266 812.236 766.136 826.283 764.241C867.969 759.891 882.341 792.518 701.329 557.688ZM364.874 833.4C362.044 830.571 242.685 633.588 242.212 632.881C245.529 629.563 235.139 615.552 362.971 826.568C367.052 833.365 367.087 831.186 364.874 833.4ZM424.871 814.409C471.755 793.663 522.129 781.939 573.356 779.851L424.871 814.409ZM440.063 800.737C473.1 784.031 507.657 773.4 542.978 774.914C507.827 779.703 473.312 788.364 440.063 800.737V800.737ZM374.365 829.602C331.071 758.966 287.779 688.456 244.489 618.07C309.289 562.9 395.802 541.901 468.927 567.943C477.956 571.069 485.61 577.248 490.57 585.414C553.135 681.31 608.641 763.717 616.266 776.434C525.509 748.333 446.521 773.018 374.365 829.602V829.602ZM625.382 774.914C580.952 708.074 536.139 640.477 490.952 572.88C533.522 537.643 622.978 533.675 667.536 550.091C670.91 550.94 809.994 732.462 812.979 736.939C780.912 730.068 747.643 731.242 716.139 740.355C684.437 747.63 653.895 759.26 625.382 774.914V774.914ZM784.115 742.258C757.946 746.056 730.193 749.472 702.85 753.27C739.31 743.396 773.485 739.216 784.115 742.258V742.258ZM666.397 770.359C666.094 769.913 665.959 769.374 666.015 768.838C674.75 766.56 683.867 763.887 693.358 762.38C712.497 759.473 788.005 748.086 807.66 747.195C810.232 747.226 812.788 747.609 815.256 748.333C765.139 755.93 715.765 763.144 666.397 770.359Z" fill="#F8F4E3"/>
<path d="M756.393 601.372C748.613 597.907 755.141 583.273 764.746 588.075C762.087 592.616 759.053 596.81 756.393 601.372Z" fill="#738793"/>
<path d="M88.0357 844.805C87.2719 848.978 84.9874 850.959 81.1964 850.499C63.2954 848.327 86.699 858.633 10.1864 813.281C-9.76569 801.455 -91.5898 757.354 -91.5898 742.268C-89.7297 740.408 -68.3489 743.682 -65.0035 745.684C104.246 847.917 75.8848 829.619 88.0357 844.805ZM8.66578 806.066C10.5825 807.983 45.8895 829.004 71.3229 844.041C73.961 845.604 75.1209 844.423 76.6416 842.528C78.1622 840.243 76.6416 839.118 74.7461 837.965C67.6027 833.63 24.9896 807.552 11.3251 799.609C10.5717 801.814 9.68361 803.97 8.66578 806.066V806.066Z" fill="#F8F4E3"/>
<path d="M566.902 326.038C573.847 327.106 569.023 324.369 673.615 414.521C677.561 417.152 674.668 419.84 672.094 419.84C657.666 421.354 313.989 460.503 298.422 462.752C295.987 463.15 293.49 462.864 291.21 461.925C288.929 460.985 286.954 459.43 285.507 457.433C211.243 367.372 208.867 367.606 209.935 364.388C212.927 358.404 566.067 325.903 566.902 326.038ZM279.813 391.357C275.251 392.114 271.835 392.871 268.037 393.252C264.621 394.016 267.655 395.155 269.94 395.155C283.456 391.399 289.241 400.297 304.872 419.84C299.56 420.597 295.38 420.979 291.2 421.735C287.402 423.256 290.825 422.874 291.2 423.256C294.86 423.66 298.553 423.66 302.213 423.256C304.106 422.812 306.088 422.935 307.912 423.611C309.736 424.286 311.32 425.484 312.468 427.054C316.083 430.669 319.886 434.09 323.862 437.303C325.001 438.067 326.14 438.824 325.001 436.164C321.203 431.991 317.787 427.811 313.607 423.638C313.528 423.545 313.475 423.434 313.452 423.315C313.429 423.196 313.438 423.073 313.476 422.958C313.514 422.843 313.582 422.74 313.671 422.658C313.761 422.577 313.87 422.519 313.989 422.492C320.064 421.735 345.887 418.319 359.176 417.18C361.094 417.438 362.853 418.383 364.127 419.84C373.909 429.622 387.127 444.949 383.117 436.928C377.799 430.471 372.508 423.638 366.786 417.18C368.307 416.417 378.959 415.433 408.183 412.229C421.48 410.815 425.737 409.11 429.825 413.75C434.069 418.602 438.56 423.242 442.74 428.179C444.636 431.213 446.156 429.7 443.879 427.04C440.081 421.339 435.901 416.028 431.728 409.952C448.052 408.049 464.008 406.154 480.332 404.251C485.99 404.251 492.582 416.721 500.079 421.721L501.217 420.583C497.044 415.264 493.246 409.973 489.066 404.633C487.998 402.511 487.723 403.841 533.497 397.793C538.823 397.086 542.232 396.28 546.03 401.592C552.869 413.75 555.932 415.646 553.244 408.813C552.105 406.91 549.446 401.592 547.933 398.557C547.823 398.361 547.768 398.139 547.771 397.915C547.775 397.69 547.837 397.47 547.953 397.277C548.068 397.084 548.232 396.925 548.429 396.816C548.625 396.707 548.847 396.651 549.071 396.655C555.147 395.898 570.346 392.927 584.003 391.343C596.543 389.886 600.37 387.516 604.889 392.482C608.333 396.259 612.11 399.696 615.908 403.494C618.561 406.528 619.699 405.772 617.422 402.355L606.813 389.44C606.63 389.299 606.498 389.103 606.437 388.88C606.376 388.657 606.39 388.421 606.475 388.207C606.561 387.992 606.714 387.812 606.911 387.692C607.109 387.573 607.34 387.521 607.57 387.545L620.484 384.128C623.519 383.364 622.005 382.608 620.102 382.608C602.343 384.22 603.757 387.431 594.28 376.15C590.121 371.199 575.29 358.68 573.012 356.402C574.238 355.691 575.507 355.056 576.81 354.5C579.47 353.743 579.47 352.604 575.672 353.361C573.525 353.817 571.294 353.687 569.214 352.986C568.458 352.604 562.764 345.771 560.861 343.487C558.584 341.591 558.584 342.73 559.723 344.251L564.674 352.222C564.783 352.418 564.839 352.64 564.835 352.865C564.831 353.089 564.769 353.309 564.654 353.502C564.538 353.695 564.374 353.854 564.178 353.963C563.981 354.072 563.76 354.128 563.535 354.125C547.586 356.02 532.012 357.923 516.445 359.436C511.374 359.436 509.372 356.006 503.912 351.465C502.391 348.806 501.253 349.944 503.155 352.222C505.051 354.881 506.571 357.541 508.474 360.2C509.231 361.721 508.849 362.096 508.092 362.096C500.878 363.617 486.442 363.963 477.679 365.137C455.648 368.094 454.46 368.603 445.781 358.298C443.811 356.087 441.65 354.054 439.324 352.222C438.185 350.708 437.429 351.847 438.185 353.361C441.609 357.541 445.781 362.86 449.579 367.415C449.656 367.507 449.708 367.618 449.73 367.736C449.752 367.855 449.743 367.976 449.705 368.09C449.667 368.204 449.6 368.307 449.511 368.388C449.422 368.469 449.314 368.526 449.198 368.554C443.504 368.936 419.966 370.088 409.704 371.97C401.358 373.505 399.802 373.109 393.38 365.519C391.69 363.072 389.782 360.783 387.679 358.68C385.02 355.263 385.784 357.923 386.54 359.818C389.2 363.617 391.859 367.797 394.518 371.97C394.598 372.144 394.642 372.333 394.646 372.525C394.651 372.716 394.616 372.907 394.545 373.085C394.473 373.263 394.366 373.425 394.231 373.56C394.095 373.695 393.933 373.802 393.755 373.872C376.285 376.532 359.275 379.248 342.124 381.844C335.85 382.799 338.029 380.429 328.07 370.456L326.932 371.595C329.216 375.393 331.883 378.809 334.91 382.982C320.099 385.642 305.664 387.516 291.236 390.579C289.111 391.2 286.835 391.043 284.816 390.135C282.797 389.228 281.169 387.629 280.223 385.628C270.732 373.858 269.211 374.615 270.732 376.518C273.261 381.752 276.303 386.723 279.813 391.357Z" fill="#738793"/>
<path d="M284.364 486.302C283.656 485.595 277.602 480.962 285.121 479.087C300.68 477.185 689.559 432.752 706.265 430.857C709.54 430.857 711.824 434.881 706.647 436.169C666.622 441.339 292.405 484.689 284.364 486.302Z" fill="#F8F4E3"/>
<path d="M172.709 362.877C276.614 479.581 279.068 476.292 274.485 480.225C271.826 482.503 269.951 479.822 268.409 477.948C248.556 453.758 167.015 365.925 167.015 364.39C167.015 363.252 166.987 356.44 172.709 362.877Z" fill="#F8F4E3"/>
<path d="M336.766 625.669C332.367 627.925 328.123 630.457 326.864 627.19C325.351 621.128 357.39 607.187 360.665 605.921C390.483 594.227 422.492 589.173 454.463 591.11C459.975 591.712 465.435 592.729 470.794 594.152C487.182 602.321 408.929 588.691 336.766 625.669Z" fill="#F8F4E3"/>
<path d="M473.859 619.597C482.968 623.395 474.233 624.548 472.713 624.548C454.256 624.656 435.886 627.08 418.034 631.763C416.895 632.144 407.778 631.006 416.513 626.811C450.398 615.954 457.881 615.912 473.859 619.597Z" fill="#F8F4E3"/>
<path d="M629.176 698.972C624.621 691.757 620.059 684.918 615.504 678.085C614.839 677.65 614.091 677.357 613.307 677.226C612.523 677.094 611.72 677.127 610.95 677.321C607.123 678.375 602.972 679.599 598.792 680.363C601.076 675.044 606.388 673.905 610.95 670.864C607.526 665.17 604.492 659.476 601.048 653.4C587.355 658.351 588.175 658.097 584.335 656.817C586.641 653.358 582.588 654.695 598.388 648.081C593.827 640.103 589.654 632.521 585.092 624.535C582.058 625.674 579.016 626.813 575.6 627.952C575.6 622.64 580.155 622.293 582.439 619.98C579.016 612.766 575.6 605.544 572.184 597.948C572.566 597.573 572.368 591.738 578.26 599.851C588.161 613.473 589.067 617.321 591.931 617.321C604.464 614.662 616.615 611.62 629.148 608.586C616.233 585.04 614.337 577.061 633.702 604.788C634.14 606.073 635.053 607.142 636.253 607.777C637.453 608.412 638.851 608.565 640.16 608.204C649.263 607.32 658.386 607.065 668.26 606.683C666.993 604.394 665.975 601.975 665.226 599.469C655.324 568.708 670.537 597.191 670.537 597.573C677.525 618.538 694.45 600.855 701.657 614.28C695.582 613.905 689.124 613.523 681.528 613.141C685.708 619.598 689.124 625.292 692.922 630.993C693.813 632.768 712.429 631.127 717.988 636.651C711.531 640.068 705.073 636.651 697.859 638.929C700.9 643.88 703.934 648.831 707.358 653.74C707.733 654.504 709.635 654.504 711.149 654.504C716.849 654.879 722.168 654.879 727.861 655.261C729.432 655.594 730.96 656.104 732.416 656.781C732.416 659.54 734.665 657.361 711.905 660.954C715.322 666.655 718.363 672.349 722.161 677.668C724.134 679.648 730.648 678.276 746.081 679.189C747.573 679.189 754.568 681.678 752.538 683.744C744.185 684.5 735.825 685.264 727.076 686.021C727.729 688.874 728.616 691.667 729.729 694.374C739.631 721.718 739.227 722.857 724.778 697.798C721.949 694.013 719.473 687.542 715.668 687.542C705.766 689.062 696.296 690.583 686.048 692.097C688.707 698.554 693.644 711.47 695.157 716.407C698.581 725.517 692.88 717.163 692.505 716.781C682.872 703.145 680.064 694.756 675.792 694.756C664.398 697.034 653.386 699.707 641.992 701.971C645.415 708.046 648.449 713.747 651.49 719.441C654.15 723.621 651.108 722.857 649.588 720.58C647.31 717.92 644.637 715.629 642.374 712.983C639.728 709.935 637.423 705.012 634.403 704.248C630.392 702.918 626.036 706.702 613.135 709.567C615.504 703.909 622.719 702.77 629.176 698.972ZM605.249 645.422C617.4 642.388 629.176 638.964 640.945 635.93C637.911 629.09 634.495 622.64 631.043 615.043C618.51 617.321 605.581 619.995 591.931 622.64C596.896 630.611 601.048 638.208 605.249 645.422ZM621.198 673.905C626.149 681.501 630.697 688.716 635.251 695.555C635.558 695.947 635.98 696.231 636.458 696.367C636.936 696.503 637.444 696.484 637.911 696.312C648.923 693.271 660.317 690.236 671.704 686.82C667.913 680.363 664.115 674.287 660.317 668.211C660.042 667.774 659.64 667.431 659.165 667.227C658.69 667.024 658.164 666.97 657.658 667.072C645.882 669.35 634.113 671.627 621.198 673.905V673.905ZM655.38 660.615C652.339 655.296 648.923 650.005 645.882 644.665C644.524 641.942 639.057 644.969 608.29 650.741C611.706 656.817 614.366 661.35 617.4 666.301C618.164 667.065 619.684 668.204 620.823 667.822C632.21 665.552 643.604 663.274 655.38 660.615V660.615ZM667.149 665.17C676.86 681.063 678.855 685.682 681.203 685.682C691.105 684.161 700.95 682.258 711.198 680.363C707.782 674.662 704.748 669.35 701.296 664.031C700.228 661.838 697.406 662.044 667.149 665.17V665.17ZM637.911 614.28C649.163 634.912 645.783 635.074 659.178 633.653C666.393 632.882 673.607 632.132 681.203 631.368C678.162 625.674 675.212 620.299 672.086 615.418C671.716 614.814 671.218 614.297 670.628 613.904C670.039 613.511 669.37 613.25 668.67 613.141C658.789 613.332 648.923 613.905 637.911 614.28V614.28ZM652.721 641.624C656.137 647.699 659.178 652.636 662.623 657.573C662.983 658.037 663.442 658.415 663.967 658.678C664.492 658.941 665.07 659.083 665.657 659.094C675.912 657.955 685.786 656.435 696.416 655.296C682.709 634.777 693.495 638.71 652.721 641.624V641.624Z" fill="#F8F4E3"/>
<path d="M562.34 578.577C561.201 575.16 563.861 573.258 566.52 572.501C605.116 558.284 644.624 560.986 651.958 568.321C655.261 571.624 651.619 573.619 649.306 572.883C621.715 564.098 589.768 571.723 562.34 578.577Z" fill="#F8F4E3"/>
<path d="M423.727 406.163C416.895 406.92 411.202 407.726 405.501 408.441C392.6 410.06 379.679 411.1 366.764 412.614C365.243 412.614 362.966 412.614 362.209 411.475C355.37 403.504 348.537 395.15 340.941 386.012C348.919 384.873 383.512 380.156 393.35 378.416C395.092 377.949 396.935 378.027 398.631 378.637C400.328 379.248 401.797 380.363 402.842 381.832C408.868 389.492 416.131 397.428 423.727 406.163Z" fill="#738793"/>
<path d="M594.235 383.756C594.418 383.897 594.55 384.094 594.611 384.316C594.672 384.539 594.658 384.775 594.573 384.99C594.487 385.204 594.334 385.385 594.137 385.504C593.939 385.624 593.708 385.675 593.479 385.652C588.323 386.26 566.963 389.584 544.868 391.352C538.623 391.352 543.043 391.876 518.289 365.89C518.106 365.749 517.974 365.552 517.913 365.329C517.852 365.107 517.866 364.87 517.951 364.656C518.037 364.442 518.19 364.261 518.387 364.142C518.585 364.022 518.816 363.97 519.045 363.994C567.14 357.36 567.14 355.91 568.795 357.536C577.53 366.272 585.783 375.113 594.235 383.756Z" fill="#738793"/>
<path d="M458.676 370.843C476.209 368.651 498.835 366.543 507.661 365.149C509.404 364.816 511.205 364.957 512.875 365.558C514.545 366.159 516.022 367.198 517.153 368.566C523.766 376.417 530.824 384.126 538.046 392.494C527.224 394.036 528.816 393.526 486.776 398.569C485.184 398.598 483.612 398.205 482.221 397.431C474.243 389.452 466.661 381.099 458.676 372.746V370.843Z" fill="#738793"/>
<path d="M478.792 399.71C465.878 401.231 453.331 401.974 440.812 404.661C436.455 405.845 431.824 405.51 427.683 403.71C423.542 401.91 420.138 398.753 418.031 394.759C413.872 389.22 409.435 383.896 404.734 378.809C404.592 378.621 404.498 378.4 404.46 378.166C404.422 377.933 404.441 377.694 404.517 377.47C404.592 377.245 404.72 377.043 404.891 376.88C405.062 376.716 405.271 376.597 405.498 376.532C451.796 371.581 445.169 372.019 450.311 371.581C452.588 371.581 453.734 373.087 455.261 374.615C463.674 382.428 471.536 390.813 478.792 399.71Z" fill="#738793"/>
<path d="M288.541 394.01C301.448 392.108 308.684 390.75 324.237 388.691C333.36 387.482 337.13 383.924 341.699 391.726C349.104 404.372 353.115 404.86 358.794 413.376C336.741 415.823 326.585 417.528 313.224 418.695C307.425 418.695 306.859 416.304 288.159 395.524C288.007 395.435 287.889 395.299 287.821 395.137C287.753 394.974 287.74 394.795 287.783 394.624C287.826 394.454 287.923 394.302 288.06 394.191C288.196 394.08 288.365 394.017 288.541 394.01V394.01Z" fill="#738793"/>
</svg>
