<svg width="790" height="1080" viewBox="0 0 790 1080" fill="none" xmlns="http://www.w3.org/2000/svg">
<path d="M462.296 1124.34L596.92 1073.43" stroke="#F8F4E3" stroke-width="7" stroke-linecap="round" stroke-linejoin="round"/>
<path d="M362.455 -70.292L126.714 59.8451" stroke="#F8F4E3" stroke-width="7" stroke-linecap="round" stroke-linejoin="round"/>
<path d="M-202.756 327.897L47.5037 114.658" stroke="#F8F4E3" stroke-width="7" stroke-linecap="round" stroke-linejoin="round"/>
<path d="M785.25 132.616L705.51 46.085" stroke="#F8F4E3" stroke-width="7" stroke-linecap="round" stroke-linejoin="round"/>
<path d="M887.21 622.766L760.314 917.024" stroke="#F8F4E3" stroke-width="7" stroke-linecap="round" stroke-linejoin="round"/>
<path d="M132.335 77.2668L624.666 16.4463" stroke="#F8F4E3" stroke-width="7" stroke-linecap="round" stroke-linejoin="round"/>
<path d="M68.9369 782.605L23.5391 957.936" stroke="#F8F4E3" stroke-width="7" stroke-linecap="round" stroke-linejoin="round"/>
<path d="M-206.295 396.526L49.7825 698.803" stroke="#F8F4E3" stroke-width="7" stroke-linecap="round" stroke-linejoin="round"/>
<path d="M378.589 1095.99L111.9 773.067" stroke="#F8F4E3" stroke-width="7" stroke-linecap="round" stroke-linejoin="round"/>
<path d="M210.402 362.034L368.826 330.95" stroke="#F8F4E3" stroke-width="7" stroke-linecap="round" stroke-linejoin="round"/>
<path d="M658.846 56.885L532.871 478.79" stroke="#F8F4E3" stroke-width="7" stroke-linecap="round" stroke-linejoin="round"/>
<path d="M446.459 474.663L425.679 369.127" stroke="#F8F4E3" stroke-width="7" stroke-linecap="round" stroke-linejoin="round"/>
<path d="M461.605 338.796L815.149 473.028" stroke="#F8F4E3" stroke-width="7" stroke-linecap="round" stroke-linejoin="round"/>
<path d="M647.58 924.947L574.988 805.626" stroke="#F8F4E3" stroke-width="7" stroke-linecap="round" stroke-linejoin="round"/>
<path d="M369.857 1126.01L57.2754 1020.31" stroke="#F8F4E3" stroke-width="7" stroke-linecap="round" stroke-linejoin="round"/>
<path d="M304.516 687.142L128.384 725.442" stroke="#F8F4E3" stroke-width="7" stroke-linecap="round" stroke-linejoin="round"/>
<path d="M416.332 370.029C443.072 370.029 464.749 348.352 464.749 321.611C464.749 294.871 443.072 273.194 416.332 273.194C389.591 273.194 367.914 294.871 367.914 321.611C367.914 348.352 389.591 370.029 416.332 370.029Z" stroke="#F8F4E3" stroke-width="7" stroke-linecap="round" stroke-linejoin="round"/>
<path d="M584.35 503.647L790.372 207.938" stroke="#F8F4E3" stroke-width="7" stroke-linecap="round" stroke-linejoin="round"/>
<path d="M172.281 442.986L331.847 550.706" stroke="#F8F4E3" stroke-width="7" stroke-linecap="round" stroke-linejoin="round"/>
<path d="M86.1696 231.161L85.0095 131.579" stroke="#F8F4E3" stroke-width="7" stroke-linecap="round" stroke-linejoin="round"/>
<path d="M169.688 262.316L377.979 -53.1833" stroke="#F8F4E3" stroke-width="7" stroke-linecap="round" stroke-linejoin="round"/>
<path d="M86.2025 476.507L82.0398 687.34" stroke="#F8F4E3" stroke-width="7" stroke-linecap="round" stroke-linejoin="round"/>
<path d="M818.049 216.636C844.789 216.636 866.466 194.959 866.466 168.218C866.466 141.478 844.789 119.801 818.049 119.801C791.308 119.801 769.631 141.478 769.631 168.218C769.631 194.959 791.308 216.636 818.049 216.636Z" stroke="#F8F4E3" stroke-width="7" stroke-linecap="round" stroke-linejoin="round"/>
<path d="M672.713 58.914C699.454 58.914 721.131 37.237 721.131 10.4964C721.131 -16.2441 699.454 -37.9211 672.713 -37.9211C645.973 -37.9211 624.296 -16.2441 624.296 10.4964C624.296 37.237 645.973 58.914 672.713 58.914Z" stroke="#F8F4E3" stroke-width="7" stroke-linecap="round" stroke-linejoin="round"/>
<path d="M84.2657 131.601C111.006 131.601 132.683 109.924 132.683 83.1834C132.683 56.4429 111.006 34.7659 84.2657 34.7659C57.5251 34.7659 35.8481 56.4429 35.8481 83.1834C35.8481 109.924 57.5251 131.601 84.2657 131.601Z" stroke="#F8F4E3" stroke-width="7" stroke-linecap="round" stroke-linejoin="round"/>
<path d="M11.4095 1053.23C38.1501 1053.23 59.8271 1031.55 59.8271 1004.81C59.8271 978.069 38.1501 956.392 11.4095 956.392C-15.3311 956.392 -37.0081 978.069 -37.0081 1004.81C-37.0081 1031.55 -15.3311 1053.23 11.4095 1053.23Z" stroke="#F8F4E3" stroke-width="7" stroke-linecap="round" stroke-linejoin="round"/>
<path d="M81.0831 784.171C107.824 784.171 129.501 762.494 129.501 735.753C129.501 709.012 107.824 687.335 81.0831 687.335C54.3426 687.335 32.6655 709.012 32.6655 735.753C32.6655 762.494 54.3426 784.171 81.0831 784.171Z" stroke="#F8F4E3" stroke-width="7" stroke-linecap="round" stroke-linejoin="round"/>
<path d="M87.9881 476.52C155.744 476.52 210.67 421.594 210.67 353.838C210.67 286.083 155.744 231.156 87.9881 231.156C20.2325 231.156 -34.6936 286.083 -34.6936 353.838C-34.6936 421.594 20.2325 476.52 87.9881 476.52Z" stroke="#F8F4E3" stroke-width="7" stroke-linecap="round" stroke-linejoin="round"/>
<path d="M48.5166 351.001C48.5166 361.471 52.6759 371.513 60.0802 378.915C67.4827 386.32 77.5245 390.479 87.9945 390.479C98.4645 390.479 108.506 386.32 115.909 378.915C123.313 371.513 127.472 361.471 127.472 351.001V331.262C127.472 320.792 123.313 310.75 115.909 303.346C108.506 295.944 98.4645 291.784 87.9945 291.784C77.5245 291.784 67.4827 295.944 60.0802 303.346C52.6759 310.75 48.5166 320.792 48.5166 331.262V351.001Z" stroke="#F8F4E3" stroke-width="7" stroke-linecap="round" stroke-linejoin="round"/>
<path d="M170.006 445.079C147.488 465.311 118.286 476.502 88.0138 476.502C57.7417 476.502 28.5393 465.311 6.02124 445.079C12.7618 428.909 24.136 415.093 38.7091 405.371C53.2821 395.648 70.4057 390.453 87.9251 390.438C105.444 390.422 122.577 395.59 137.167 405.289C151.757 414.986 163.153 428.783 169.921 444.942" stroke="#F8F4E3" stroke-width="7" stroke-linecap="round" stroke-linejoin="round"/>
<path d="M48.8481 326.175C49.882 318.213 53.3214 310.755 58.704 304.796C64.0865 298.839 71.1581 294.664 78.9735 292.828C86.7906 290.994 94.9813 291.586 102.454 294.526C109.925 297.465 116.322 302.614 120.792 309.285C111.448 318.342 99.8231 324.696 87.154 327.671C74.4849 330.645 61.246 330.128 48.8481 326.175Z" stroke="#F8F4E3" stroke-width="7" stroke-linecap="round" stroke-linejoin="round"/>
<path d="M481.289 831.864C580.853 831.864 661.566 751.151 661.566 651.586C661.566 552.022 580.853 471.309 481.289 471.309C381.724 471.309 301.011 552.022 301.011 651.586C301.011 751.151 381.724 831.864 481.289 831.864Z" stroke="#F8F4E3" stroke-width="7" stroke-linecap="round" stroke-linejoin="round"/>
<path d="M423.285 647.406C423.285 662.789 429.396 677.543 440.274 688.423C451.154 699.3 465.908 705.411 481.291 705.411C496.674 705.411 511.428 699.3 522.308 688.423C533.185 677.543 539.296 662.789 539.296 647.406V618.403C539.296 603.02 533.185 588.266 522.308 577.386C511.428 566.509 496.674 560.397 481.291 560.397C465.908 560.397 451.154 566.509 440.274 577.386C429.396 588.266 423.285 603.02 423.285 618.403V647.406Z" stroke="#F8F4E3" stroke-width="7" stroke-linecap="round" stroke-linejoin="round"/>
<path d="M601.853 785.74C568.764 815.466 525.854 831.912 481.372 831.912C436.89 831.912 393.98 815.466 360.891 785.74C370.793 761.976 387.502 741.674 408.917 727.384C430.331 713.096 455.493 705.462 481.236 705.44C506.978 705.417 532.154 713.009 553.593 727.262C575.031 741.514 591.774 761.788 601.717 785.535" stroke="#F8F4E3" stroke-width="7" stroke-linecap="round" stroke-linejoin="round"/>
<path d="M423.763 610.935C425.27 599.22 430.318 588.241 438.232 579.472C446.147 570.703 456.55 564.56 468.051 561.862C479.551 559.165 491.601 560.044 502.59 564.38C513.578 568.717 522.98 576.304 529.538 586.129C515.799 599.443 498.705 608.782 480.078 613.149C461.452 617.519 441.989 616.753 423.763 610.935Z" stroke="#F8F4E3" stroke-width="7" stroke-linecap="round" stroke-linejoin="round"/>
<path d="M711.56 1152.34C779.316 1152.34 834.242 1097.41 834.242 1029.65C834.242 961.898 779.316 906.972 711.56 906.972C643.805 906.972 588.878 961.898 588.878 1029.65C588.878 1097.41 643.805 1152.34 711.56 1152.34Z" stroke="#F8F4E3" stroke-width="7" stroke-linecap="round" stroke-linejoin="round"/>
<path d="M672.094 1026.81C671.985 1032.07 672.925 1037.29 674.859 1042.17C676.794 1047.05 679.684 1051.5 683.359 1055.26C687.035 1059.01 691.423 1061.99 696.267 1064.03C701.109 1066.06 706.31 1067.11 711.563 1067.11C716.816 1067.11 722.016 1066.06 726.86 1064.03C731.703 1061.99 736.091 1059.01 739.768 1055.26C743.442 1051.5 746.332 1047.05 748.267 1042.17C750.202 1037.29 751.142 1032.07 751.033 1026.81V1007.07C751.142 1001.82 750.202 996.6 748.267 991.716C746.332 986.832 743.442 982.382 739.768 978.629C736.091 974.877 731.703 971.895 726.86 969.86C722.016 967.825 716.816 966.775 711.563 966.775C706.31 966.775 701.109 967.825 696.267 969.86C691.423 971.895 687.035 974.877 683.359 978.629C679.684 982.382 676.794 986.832 674.859 991.716C672.925 996.6 671.985 1001.82 672.094 1007.07V1026.81Z" stroke="#F8F4E3" stroke-width="7" stroke-linecap="round" stroke-linejoin="round"/>
<path d="M793.589 1120.9C771.071 1141.13 741.869 1152.33 711.597 1152.33C681.325 1152.33 652.122 1141.13 629.604 1120.9C636.341 1104.73 647.712 1090.91 662.285 1081.19C676.858 1071.46 693.982 1066.27 711.499 1066.25C729.019 1066.24 746.151 1071.41 760.739 1081.11C775.328 1090.81 786.722 1104.61 793.487 1120.77" stroke="#F8F4E3" stroke-width="7" stroke-linecap="round" stroke-linejoin="round"/>
<path d="M672.42 1001.96C673.452 994.001 676.89 986.544 682.271 980.587C687.653 974.629 694.725 970.454 702.54 968.62C710.357 966.786 718.546 967.382 726.017 970.325C733.486 973.268 739.88 978.418 744.347 985.091C735.006 994.146 723.383 1000.5 710.715 1003.47C698.05 1006.44 684.814 1005.92 672.42 1001.96Z" stroke="#F8F4E3" stroke-width="7" stroke-linecap="round" stroke-linejoin="round"/>
<path d="M984.923 867.734L646.99 722.703" stroke="#F8F4E3" stroke-width="7" stroke-linecap="round" stroke-linejoin="round"/>
<path d="M457.101 830.266L422.895 1091.61" stroke="#F8F4E3" stroke-width="7" stroke-linecap="round" stroke-linejoin="round"/>
<path d="M447.126 284.245L641.922 47.855" stroke="#F8F4E3" stroke-width="7" stroke-linecap="round" stroke-linejoin="round"/>
</svg>
